<?xml version="1.0" standalone="no"?>
<!DOCTYPE svg PUBLIC "-//W3C//DTD SVG 20010904//EN"
 "http://www.w3.org/TR/2001/REC-SVG-20010904/DTD/svg10.dtd">
<svg version="1.0" xmlns="http://www.w3.org/2000/svg"
 width="512.000000pt" height="512.000000pt" viewBox="0 0 512.000000 512.000000"
 preserveAspectRatio="xMidYMid meet">
<metadata>
Created by potrace 1.14, written by Peter Selinger 2001-2017
</metadata>
<g transform="translate(0.000000,512.000000) scale(0.100000,-0.100000)"
fill="#000000" stroke="none">
<path d="M1475 4363 c-87 -21 -110 -144 -62 -343 68 -279 210 -619 471 -1125
20 -38 36 -77 36 -87 0 -11 11 -30 25 -43 74 -75 187 33 115 110 -13 14 -28
25 -35 25 -10 0 -170 310 -246 475 -156 342 -263 655 -276 802 -6 69 -5 73 13
67 64 -23 188 -152 338 -351 42 -56 76 -106 76 -112 0 -5 -10 -13 -22 -16 -34
-10 -192 -67 -197 -71 -9 -8 120 -297 241 -540 70 -141 108 -206 125 -215 61
-33 84 -128 44 -192 -61 -99 -217 -82 -251 28 -7 22 -25 65 -41 95 -89 171
-224 455 -280 587 -35 84 -68 152 -72 153 -9 0 -394 -134 -432 -150 -11 -5
-64 -24 -118 -42 -55 -18 -109 -43 -122 -54 -81 -75 -60 -393 52 -764 79 -264
210 -561 323 -735 70 -106 175 -211 221 -220 32 -6 218 54 559 180 36 13 243
87 460 164 217 76 408 144 423 150 l28 11 -61 57 c-182 168 -373 555 -500
1013 -65 232 -94 516 -63 619 7 24 12 45 11 47 -2 1 -48 -13 -102 -32 -55 -19
-103 -31 -107 -27 -3 5 -35 49 -71 98 -35 50 -73 101 -85 115 -12 14 -38 45
-58 70 -154 188 -275 273 -360 253z"/>
<path d="M2341 3908 c-36 -38 -46 -86 -45 -218 1 -133 20 -266 61 -420 125
-475 353 -929 530 -1053 l44 -32 -5 -125 c-11 -228 -16 -344 -21 -435 -5 -107
-17 -374 -19 -428 -2 -59 -9 -61 -158 -32 -88 16 -101 7 -52 -39 32 -30 36
-37 24 -46 -8 -5 -28 -10 -45 -11 -33 -2 -31 -2 -92 -13 -39 -7 -59 -24 -33
-27 6 -1 13 -2 18 -3 4 -2 37 -6 73 -10 36 -5 71 -11 78 -15 12 -8 5 -41 -8
-41 -13 0 -52 -41 -47 -49 3 -5 27 -5 53 0 26 4 66 10 88 14 22 3 49 8 61 10
21 3 74 -36 74 -55 0 -8 32 -23 55 -25 6 -1 31 18 57 41 34 32 52 42 70 39 12
-3 55 -11 94 -18 39 -7 79 -11 89 -7 15 5 12 11 -21 43 -32 31 -36 39 -24 47
8 5 27 10 43 11 15 1 30 2 35 3 4 1 28 5 55 10 81 13 56 30 -62 42 -87 10 -93
17 -47 60 28 26 35 39 26 44 -7 5 -18 6 -24 4 -6 -2 -27 -5 -46 -8 -19 -2 -46
-6 -60 -9 -55 -13 -90 -15 -99 -4 -5 7 -12 37 -16 67 -3 30 -8 71 -10 90 -2
19 -7 67 -10 105 -3 39 -8 88 -10 110 -3 22 -7 66 -10 98 -3 32 -7 77 -10 100
-2 23 -9 94 -15 157 -10 116 -16 177 -25 260 -4 41 -2 46 16 47 63 5 91 88 85
257 -2 67 -7 135 -10 153 -30 179 -66 320 -129 508 -134 395 -315 707 -467
809 -35 23 -85 21 -109 -6z m140 -155 c44 -46 99 -140 165 -278 228 -480 386
-1112 287 -1149 -37 -14 -145 139 -229 321 -123 269 -263 683 -291 858 -2 17
-8 46 -12 66 -5 19 -9 72 -10 116 -2 63 2 84 14 97 19 19 37 12 76 -31z"/>
<path d="M2607 1254 c-1 -1 -51 -5 -112 -9 -60 -3 -123 -8 -140 -10 -16 -2
-55 -6 -85 -10 -30 -3 -71 -8 -90 -10 -19 -3 -57 -7 -85 -11 -151 -18 -389
-82 -455 -122 -179 -109 39 -221 555 -286 233 -29 446 -40 775 -40 241 1 520
9 567 18 10 2 52 7 93 10 41 4 91 9 110 11 67 9 175 25 200 30 14 3 52 10 85
16 32 6 95 22 140 36 190 60 246 128 156 192 -26 19 -136 65 -181 77 -64 16
-317 63 -365 68 -33 3 -73 8 -90 10 -31 4 -153 15 -240 21 -27 2 -116 6 -197
10 l-148 6 0 -27 c0 -24 2 -26 33 -20 17 3 66 9 108 12 69 6 78 5 97 -14 15
-15 20 -30 16 -56 -2 -20 -1 -36 3 -37 63 -6 108 -26 120 -52 24 -59 -17 -95
-120 -106 -4 -1 -5 -16 -3 -35 9 -71 -47 -92 -179 -65 l-80 16 -33 -34 c-39
-39 -59 -50 -89 -47 -13 1 -29 2 -37 3 -8 0 -32 18 -54 39 l-40 39 -64 -14
c-154 -32 -197 -16 -189 75 1 12 -4 22 -11 22 -27 0 -88 21 -103 36 -8 9 -15
30 -15 48 0 24 7 36 29 49 27 16 57 24 90 26 9 1 11 9 7 25 -16 64 36 100 124
84 129 -22 120 -22 120 6 l0 26 -111 -3 c-61 -1 -111 -3 -112 -3z"/>
</g>
</svg>
